<svg xmlns="http://www.w3.org/2000/svg" viewBox="6 -763 2711 884"><defs><linearGradient id="g" x1="0" y1="0" x2="1" y2="1"><stop offset="0" stop-color="#ffe6b0"/><stop offset=".5" stop-color="#f5be62"/><stop offset="1" stop-color="#d99a3a"/></linearGradient></defs><path d="M388 101Q278 101 196.5 67.0Q115 33 70.5 -26.5Q26 -86 26 -162Q26 -224 48.0 -275.0Q70 -326 106.5 -360.0Q143 -394 187 -405Q194 -406 194 -400Q194 -395 189 -392Q137 -361 109.5 -303.0Q82 -245 82 -174Q82 -97 122.0 -41.5Q162 14 231.5 43.5Q301 73 388 73Q463 73 530.5 46.5Q598 20 655.0 -26.0Q712 -72 757.5 -130.5Q803 -189 834 -253Q841 -268 848.0 -282.0Q855 -296 862 -310Q838 -311 818.5 -312.0Q799 -313 792 -313Q765 -313 734.5 -309.5Q704 -306 677.5 -296.0Q651 -286 634 -265Q627 -258 625.5 -254.0Q624 -250 621 -250Q617 -250 614.0 -256.5Q611 -263 615 -271Q638 -322 680.0 -340.5Q722 -359 774 -359Q785 -359 815.5 -355.5Q846 -352 880 -348Q924 -437 960.5 -509.0Q997 -581 1029 -629Q957 -653 876.0 -671.5Q795 -690 702 -690Q633 -690 577.0 -671.0Q521 -652 481.5 -620.0Q442 -588 421.0 -549.0Q400 -510 400 -471Q400 -427 417.0 -401.0Q434 -375 461.5 -363.5Q489 -352 518 -352Q561 -352 591.5 -373.0Q622 -394 640.0 -420.5Q658 -447 662 -464Q666 -480 674 -480Q686 -480 684 -466Q678 -422 653.0 -390.0Q628 -358 592.0 -341.5Q556 -325 516 -325Q475 -325 437.0 -345.0Q399 -365 375.0 -403.0Q351 -441 351 -495Q351 -539 370.5 -582.5Q390 -626 429.5 -662.5Q469 -699 530.0 -721.0Q591 -743 674 -743Q733 -743 795.0 -729.5Q857 -716 920.5 -695.5Q984 -675 1046 -653Q1067 -680 1086.0 -694.5Q1105 -709 1124 -709Q1132 -709 1135.0 -705.5Q1138 -702 1138 -699Q1138 -695 1135.0 -690.0Q1132 -685 1124 -685Q1091 -685 1062 -648Q1134 -624 1200.5 -605.5Q1267 -587 1324 -587Q1368 -587 1382.0 -596.5Q1396 -606 1396 -623Q1396 -634 1403 -634Q1408 -634 1412.5 -627.5Q1417 -621 1417 -612Q1417 -588 1390.5 -573.0Q1364 -558 1317 -558Q1255 -558 1188.0 -578.5Q1121 -599 1046 -624Q1019 -579 993.0 -506.5Q967 -434 932 -343Q975 -339 1023.0 -336.5Q1071 -334 1101 -334Q1111 -334 1111 -328Q1111 -320 1088 -314Q1073 -310 1037.5 -308.0Q1002 -306 964 -306Q956 -306 944.0 -306.5Q932 -307 918 -307Q909 -284 899.5 -260.5Q890 -237 879 -212Q837 -113 776.5 -51.5Q716 10 647.5 43.5Q579 77 511.5 89.0Q444 101 388 101Z M1329 3Q1306 3 1288.5 -10.0Q1271 -23 1271 -63Q1271 -80 1273.5 -95.0Q1276 -110 1280 -127Q1271 -112 1255.0 -90.0Q1239 -68 1219.5 -47.0Q1200 -26 1179.5 -12.0Q1159 2 1141 2Q1115 2 1099.0 -21.5Q1083 -45 1083 -83Q1083 -124 1102.0 -171.0Q1121 -218 1154.0 -261.0Q1187 -304 1230.0 -331.0Q1273 -358 1320 -358Q1343 -358 1364.0 -350.5Q1385 -343 1401 -326Q1408 -319 1408 -310Q1408 -304 1403.0 -300.0Q1398 -296 1390 -298Q1379 -333 1343 -333Q1326 -333 1304 -322Q1277 -308 1246.5 -277.5Q1216 -247 1189.5 -208.5Q1163 -170 1146.0 -131.0Q1129 -92 1129 -60Q1129 -27 1154 -27Q1176 -27 1199.5 -48.0Q1223 -69 1244.5 -100.5Q1266 -132 1284.0 -163.0Q1302 -194 1312 -213Q1327 -240 1340.0 -258.0Q1353 -276 1377 -276Q1388 -276 1399.0 -273.0Q1410 -270 1422 -272Q1392 -242 1369.5 -201.0Q1347 -160 1335.0 -120.5Q1323 -81 1323 -54Q1323 -24 1343 -24Q1359 -24 1377.5 -42.0Q1396 -60 1413.5 -87.5Q1431 -115 1446.0 -143.5Q1461 -172 1470 -193Q1475 -193 1478.5 -192.0Q1482 -191 1482 -184Q1481 -180 1478.5 -175.5Q1476 -171 1471 -160Q1463 -144 1449.0 -117.0Q1435 -90 1416.0 -62.5Q1397 -35 1375.0 -16.0Q1353 3 1329 3Z M1498 0Q1461 0 1446.0 -21.5Q1431 -43 1431 -71Q1431 -86 1434.5 -101.5Q1438 -117 1443 -130L1510 -301Q1513 -309 1513 -315Q1513 -325 1508.0 -332.5Q1503 -340 1501 -343L1556 -345Q1571 -346 1577.5 -341.5Q1584 -337 1584 -331Q1584 -325 1577 -309Q1567 -285 1550.0 -249.0Q1533 -213 1516.5 -175.0Q1500 -137 1488.5 -104.0Q1477 -71 1477 -53Q1477 -40 1483.5 -31.0Q1490 -22 1506 -22Q1527 -22 1547.5 -38.5Q1568 -55 1586.0 -81.0Q1604 -107 1619.5 -137.0Q1635 -167 1646 -193Q1658 -193 1658 -184Q1648 -159 1632.0 -127.0Q1616 -95 1595.5 -66.5Q1575 -38 1550.5 -19.0Q1526 0 1498 0ZM1587 -407Q1574 -407 1564.5 -417.0Q1555 -427 1555 -441Q1555 -458 1569.0 -471.5Q1583 -485 1600 -485Q1614 -485 1624.0 -476.0Q1634 -467 1634 -453Q1634 -435 1620.0 -421.0Q1606 -407 1587 -407Z M1646 -193Q1653 -209 1661.0 -226.5Q1669 -244 1684 -271Q1702 -303 1722.0 -318.5Q1742 -334 1761.0 -339.0Q1780 -344 1792 -344Q1817 -344 1836.0 -337.0Q1855 -330 1870.5 -322.5Q1886 -315 1901 -315Q1920 -315 1929.0 -325.0Q1938 -335 1945 -335Q1952 -335 1957.0 -329.0Q1962 -323 1962 -314Q1962 -301 1951.0 -295.0Q1940 -289 1914 -275Q1886 -260 1864.0 -232.0Q1842 -204 1821.5 -172.0Q1801 -140 1777.0 -109.5Q1753 -79 1721 -58Q1759 -52 1791.0 -45.0Q1823 -38 1847 -38Q1853 -38 1857.5 -38.5Q1862 -39 1867 -40Q1897 -48 1919.5 -72.5Q1942 -97 1959.0 -129.0Q1976 -161 1989 -193Q2001 -193 2001 -184Q1983 -139 1958.0 -95.0Q1933 -51 1902.0 -22.0Q1871 7 1834 7Q1790 7 1756.0 -1.0Q1722 -9 1699 -9Q1680 -9 1662.5 1.5Q1645 12 1625 12Q1607 12 1607 -3Q1607 -13 1612 -20Q1615 -26 1633.0 -33.5Q1651 -41 1670.5 -48.5Q1690 -56 1697 -60Q1715 -69 1736.5 -94.5Q1758 -120 1781.0 -152.5Q1804 -185 1826.0 -216.0Q1848 -247 1868 -268Q1850 -272 1827.0 -277.0Q1804 -282 1784 -282Q1755 -282 1734.0 -276.5Q1713 -271 1695.5 -250.0Q1678 -229 1658 -184Q1646 -184 1646 -193Z M2206 3Q2183 3 2165.5 -10.0Q2148 -23 2148 -63Q2148 -80 2150.5 -95.0Q2153 -110 2157 -127Q2148 -112 2132.0 -90.0Q2116 -68 2096.5 -47.0Q2077 -26 2056.5 -12.0Q2036 2 2018 2Q1992 2 1976.0 -21.5Q1960 -45 1960 -83Q1960 -124 1979.0 -171.0Q1998 -218 2031.0 -261.0Q2064 -304 2107.0 -331.0Q2150 -358 2197 -358Q2220 -358 2241.0 -350.5Q2262 -343 2278 -326Q2285 -319 2285 -310Q2285 -304 2280.0 -300.0Q2275 -296 2267 -298Q2256 -333 2220 -333Q2203 -333 2181 -322Q2154 -308 2123.5 -277.5Q2093 -247 2066.5 -208.5Q2040 -170 2023.0 -131.0Q2006 -92 2006 -60Q2006 -27 2031 -27Q2053 -27 2076.5 -48.0Q2100 -69 2121.5 -100.5Q2143 -132 2161.0 -163.0Q2179 -194 2189 -213Q2204 -240 2217.0 -258.0Q2230 -276 2254 -276Q2265 -276 2276.0 -273.0Q2287 -270 2299 -272Q2269 -242 2246.5 -201.0Q2224 -160 2212.0 -120.5Q2200 -81 2200 -54Q2200 -24 2220 -24Q2236 -24 2254.5 -42.0Q2273 -60 2290.5 -87.5Q2308 -115 2323.0 -143.5Q2338 -172 2347 -193Q2352 -193 2355.5 -192.0Q2359 -191 2359 -184Q2358 -180 2355.5 -175.5Q2353 -171 2348 -160Q2340 -144 2326.0 -117.0Q2312 -90 2293.0 -62.5Q2274 -35 2252.0 -16.0Q2230 3 2206 3Z M2251 8Q2287 -65 2320.0 -136.5Q2353 -208 2388 -273Q2408 -309 2422.0 -323.5Q2436 -338 2459 -338Q2467 -338 2476.0 -335.5Q2485 -333 2494 -333Q2500 -333 2503 -334Q2489 -326 2466.5 -294.5Q2444 -263 2421.0 -222.0Q2398 -181 2380 -145Q2399 -168 2420.0 -191.0Q2441 -214 2466 -235Q2490 -256 2523.5 -278.5Q2557 -301 2589.0 -316.0Q2621 -331 2640 -331Q2647 -331 2650 -330Q2650 -330 2639.0 -310.5Q2628 -291 2611.5 -259.5Q2595 -228 2578.0 -192.5Q2561 -157 2547.5 -124.5Q2534 -92 2530 -70Q2527 -57 2527 -46Q2527 -30 2533.0 -25.0Q2539 -20 2546 -20Q2565 -20 2585.0 -37.0Q2605 -54 2623.5 -80.5Q2642 -107 2658.0 -137.0Q2674 -167 2685 -193Q2697 -193 2697 -184Q2686 -157 2669.5 -124.5Q2653 -92 2632.5 -63.0Q2612 -34 2587.0 -15.0Q2562 4 2533 4Q2513 4 2491.5 -10.0Q2470 -24 2470 -62Q2470 -73 2472.0 -85.5Q2474 -98 2479 -113Q2487 -133 2498.0 -156.0Q2509 -179 2534 -219Q2541 -230 2542.5 -236.0Q2544 -242 2544 -246Q2544 -258 2533 -258Q2524 -258 2506.5 -248.0Q2489 -238 2463 -213Q2438 -189 2403.5 -145.0Q2369 -101 2324 -15Q2317 -2 2308.5 -1.0Q2300 0 2285 1Q2275 2 2266.0 2.5Q2257 3 2251 8Z" fill="url(#g)"/></svg>